<svg xmlns="http://www.w3.org/2000/svg" version="1.1" xmlns:xlink="http://www.w3.org/1999/xlink" xmlns:svgjs="http://svgjs.dev/svgjs" width="2000" height="1500" viewBox="0 0 2000 1500"><rect width="2000" height="1500" fill="#ffffff"></rect><g transform="matrix(0.35285815102328866,0,0,0.35285815102328866,645.4711736494174,248.38709677419354)"><svg viewBox="0 0 175 248" data-background-color="#ffffff" preserveAspectRatio="xMidYMid meet" height="2834" width="2000" xmlns="http://www.w3.org/2000/svg" xmlns:xlink="http://www.w3.org/1999/xlink"><g id="tight-bounds" transform="matrix(1,0,0,1,0.41428571428571104,0.4000000000000057)"><svg viewBox="0 0 174.17142857142855 247.2" height="247.2" width="174.17142857142855"><g><svg viewBox="0 0 174.17142857142855 247.2" height="247.2" width="174.17142857142855"><g><svg viewBox="0 0 174.17142857142855 247.2" height="247.2" width="174.17142857142855"><g><svg viewBox="0 0 174.17142857142855 247.2" height="247.2" width="174.17142857142855"><g id="textblocktransform"><svg viewBox="0 0 174.17142857142855 247.2" height="247.2" width="174.17142857142855" id="textblock"><g><svg viewBox="0 0 174.17142857142855 247.2" height="247.2" width="174.17142857142855"><g transform="matrix(1,0,0,1,0,0)"><svg width="174.17142857142855" viewBox="2.55 -35.55 25.4 36.05" height="247.2" data-palette-color="#3d3839"><path d="M16.25-0.55L16.25-0.55Q18.75-0.55 20.68-1.9 22.6-3.25 22.6-5.98 22.6-8.7 20.53-10.15 18.45-11.6 14.63-12.68 10.8-13.75 9.08-14.55 7.35-15.35 5.8-16.65L5.8-16.65Q2.7-19.25 2.7-24.7L2.7-24.7Q2.7-29.15 5.88-32.35 9.05-35.55 14.55-35.55L14.55-35.55Q17.2-35.55 20.08-34.77 22.95-34 23.65-34 24.35-34 24.9-35L24.9-35 25.45-35 25.8-24.9 25-24.9Q22.6-29.25 19.98-31.88 17.35-34.5 14.28-34.5 11.2-34.5 9.5-33.08 7.8-31.65 7.8-29.28 7.8-26.9 9.83-25.63 11.85-24.35 14.8-23.55 17.75-22.75 18.68-22.45 19.6-22.15 20.98-21.63 22.35-21.1 23.23-20.53 24.1-19.95 25.08-19.07 26.05-18.2 26.6-17.15L26.6-17.15Q27.95-14.75 27.95-11.45L27.95-11.45Q27.95-6.05 24.58-2.78 21.2 0.5 15.7 0.5L15.7 0.5Q12.85 0.5 9.18-0.25 5.5-1 5.1-1L5.1-1Q4.4-1 3.75 0.5L3.75 0.5 3.05 0.5 2.55-11.4 3.4-11.4Q5.6-7.05 9.03-3.8 12.45-0.55 16.25-0.55Z" opacity="1" transform="matrix(1,0,0,1,0,0)" fill="#000000" class="wordmark-text-0" data-fill-palette-color="primary" id="text-0"></path></svg></g></svg></g></svg></g></svg></g></svg></g></svg></g><defs></defs></svg><rect width="174.17142857142855" height="247.2" fill="none" stroke="none" visibility="hidden"></rect></g></svg></g></svg>